<?xml version="1.0" encoding="UTF-8" standalone="no"?>
<!DOCTYPE svg PUBLIC "-//W3C//DTD SVG 1.1//EN"
 "http://www.w3.org/Graphics/SVG/1.1/DTD/svg11.dtd">
<!-- Generated by graphviz version 2.26.3 (20100126.1600)
 -->
<!-- Title: _anonymous_0 Pages: 1 -->
<svg width="1670pt" height="887pt"
 viewBox="0.00 0.00 1670.00 887.00" xmlns="http://www.w3.org/2000/svg" xmlns:xlink="http://www.w3.org/1999/xlink">
<g id="graph1" class="graph" transform="scale(1 1) rotate(0) translate(4 883)">
<title>_anonymous_0</title>
<polygon fill="white" stroke="white" points="-4,5 -4,-883 1667,-883 1667,5 -4,5"/>
<g id="graph2" class="cluster"><title>cluster_9d6322c1f4</title>
<polygon fill="lightblue" stroke="black" points="8,-485 8,-730 246,-730 246,-485 8,-485"/>
<text text-anchor="middle" x="127" y="-713.4" font-family="Roboto" font-size="14.00">Login</text>
</g>
<g id="graph3" class="cluster"><title>cluster_290826c5a0</title>
<polygon fill="white" stroke="black" points="16,-503 16,-697 238,-697 238,-503 16,-503"/>
</g>
<g id="graph4" class="cluster"><title>cluster_32d7e82082</title>
<polygon fill="lightblue" stroke="black" points="358,-485 358,-854 950,-854 950,-485 358,-485"/>
<text text-anchor="middle" x="654" y="-837.4" font-family="Roboto" font-size="14.00">Control</text>
</g>
<g id="graph5" class="cluster"><title>cluster_0b4b1a2af6</title>
<polygon fill="white" stroke="black" points="366,-503 366,-821 588,-821 588,-503 366,-503"/>
</g>
<g id="graph6" class="cluster"><title>cluster_b5348d5536</title>
<polygon fill="white" stroke="black" points="716,-503 716,-821 942,-821 942,-503 716,-503"/>
</g>
<g id="graph7" class="cluster"><title>cluster_fa7955814e</title>
<polygon fill="lightblue" stroke="black" points="710,-20 710,-477 948,-477 948,-20 710,-20"/>
<text text-anchor="middle" x="829" y="-460.4" font-family="Roboto" font-size="14.00">Site</text>
</g>
<g id="graph8" class="cluster"><title>cluster_4389182c79</title>
<polygon fill="white" stroke="black" points="718,-38 718,-444 940,-444 940,-38 718,-38"/>
</g>
<g id="graph9" class="cluster"><title>cluster_24b7c6bf20</title>
<polygon fill="lightblue" stroke="black" points="1062,-8 1062,-871 1654,-871 1654,-8 1062,-8"/>
<text text-anchor="middle" x="1358" y="-854.4" font-family="Roboto" font-size="14.00">Site Record</text>
</g>
<g id="graph10" class="cluster"><title>cluster_ee840ff0cb</title>
<polygon fill="white" stroke="black" points="1070,-50 1070,-838 1292,-838 1292,-50 1070,-50"/>
</g>
<g id="graph11" class="cluster"><title>cluster_718514ad1f</title>
<polygon fill="white" stroke="black" points="1420,-16 1420,-838 1646,-838 1646,-16 1420,-16"/>
</g>
<!-- _9d6322c1f4 -->
<g id="node2" class="node"><title>_9d6322c1f4</title>
</g>
<!-- struct_Label_290826c5a0 -->
<g id="node4" class="node"><title>struct_Label_290826c5a0</title>
<polygon fill="none" stroke="black" points="51.5,-655.5 51.5,-686.5 202.5,-686.5 202.5,-655.5 51.5,-655.5"/>
<polygon fill="black" stroke="black" points="53,-656 53,-685 55,-685 55,-656 53,-656"/>
<polygon fill="black" stroke="black" points="53,-685 53,-683 143,-683 143,-685 53,-685"/>
<polygon fill="black" stroke="black" points="143,-685 143,-656 141,-656 141,-685 143,-685"/>
<polygon fill="black" stroke="black" points="143,-656 143,-658 53,-658 53,-656 143,-656"/>
<text text-anchor="start" x="61.5" y="-667.7" font-family="Roboto" font-size="12.00">Group Login</text>
</g>
<!-- struct_Elems_ce6d39a81f -->
<g id="node5" class="node"><title>struct_Elems_ce6d39a81f</title>
<image xlink:href="Login_Group_Login_Group_Name.svg" width="200px" height="120px" preserveAspectRatio="xMinYMin meet" x="27.5" y="-632.5"/>
</g>
<!-- _32d7e82082 -->
<g id="node7" class="node"><title>_32d7e82082</title>
</g>
<!-- struct_Label_0b4b1a2af6 -->
<g id="node9" class="node"><title>struct_Label_0b4b1a2af6</title>
<polygon fill="none" stroke="black" points="401.5,-779.5 401.5,-810.5 552.5,-810.5 552.5,-779.5 401.5,-779.5"/>
<polygon fill="black" stroke="black" points="403,-780 403,-809 405,-809 405,-780 403,-780"/>
<polygon fill="black" stroke="black" points="403,-809 403,-807 447,-807 447,-809 403,-809"/>
<polygon fill="black" stroke="black" points="447,-809 447,-780 445,-780 445,-809 447,-809"/>
<polygon fill="black" stroke="black" points="447,-780 447,-782 403,-782 403,-780 447,-780"/>
<text text-anchor="start" x="411.5" y="-791.7" font-family="Roboto" font-size="12.00">Main</text>
<polygon fill="none" stroke="black" points="447,-780 447,-809 471,-809 471,-780 447,-780"/>
<text text-anchor="start" x="453" y="-791.7" font-family="Roboto" font-size="12.00">...</text>
</g>
<!-- struct_Elems_17be39b322 -->
<g id="node10" class="node"><title>struct_Elems_17be39b322</title>
<image xlink:href="Control_Main_Add_New_Record.svg" width="200px" height="40px" preserveAspectRatio="xMinYMin meet" x="377.5" y="-756.5"/>
</g>
<!-- struct_Elems_813090fd70 -->
<g id="node11" class="node"><title>struct_Elems_813090fd70</title>
<image xlink:href="Control_Main_Next_Site_Record_ID.svg" width="200px" height="40px" preserveAspectRatio="xMinYMin meet" x="377.5" y="-694.5"/>
</g>
<!-- struct_Elems_7898d02343 -->
<g id="node12" class="node"><title>struct_Elems_7898d02343</title>
<image xlink:href="Control_Main_List_of_Sites.svg" width="200px" height="120px" preserveAspectRatio="xMinYMin meet" x="377.5" y="-632.5"/>
</g>
<!-- struct_Label_b5348d5536 -->
<g id="node14" class="node"><title>struct_Label_b5348d5536</title>
<polygon fill="none" stroke="black" points="753.5,-779.5 753.5,-810.5 904.5,-810.5 904.5,-779.5 753.5,-779.5"/>
<polygon fill="none" stroke="black" points="755,-780 755,-809 780,-809 780,-780 755,-780"/>
<text text-anchor="start" x="761.5" y="-791.7" font-family="Roboto" font-size="12.00">...</text>
<polygon fill="black" stroke="black" points="780,-780 780,-809 782,-809 782,-780 780,-780"/>
<polygon fill="black" stroke="black" points="780,-809 780,-807 837,-807 837,-809 780,-809"/>
<polygon fill="black" stroke="black" points="837,-809 837,-780 835,-780 835,-809 837,-809"/>
<polygon fill="black" stroke="black" points="837,-780 837,-782 780,-782 780,-780 837,-780"/>
<text text-anchor="start" x="788" y="-791.7" font-family="Roboto" font-size="12.00">Search</text>
</g>
<!-- struct_Elems_98a8f05303 -->
<g id="node15" class="node"><title>struct_Elems_98a8f05303</title>
<image xlink:href="Control_Search_Search_Term.svg" width="100px" height="40px" preserveAspectRatio="xMinYMin meet" x="727.5" y="-756.5"/>
<image xlink:href="Control_Search_Search_Button.svg" width="100px" height="40px" preserveAspectRatio="xMinYMin meet" x="832" y="-756.5"/>
</g>
<!-- struct_Elems_18e4ee8dff -->
<g id="node16" class="node"><title>struct_Elems_18e4ee8dff</title>
<image xlink:href="Control_Search_Entity_Types.svg" width="200px" height="40px" preserveAspectRatio="xMinYMin meet" x="729.5" y="-694.5"/>
</g>
<!-- struct_Elems_89e10496a5 -->
<g id="node17" class="node"><title>struct_Elems_89e10496a5</title>
<image xlink:href="Control_Search_Entity_List.svg" width="200px" height="120px" preserveAspectRatio="xMinYMin meet" x="729.5" y="-632.5"/>
</g>
<!-- _fa7955814e -->
<g id="node19" class="node"><title>_fa7955814e</title>
</g>
<!-- struct_Label_4389182c79 -->
<g id="node21" class="node"><title>struct_Label_4389182c79</title>
<polygon fill="none" stroke="black" points="753.5,-402.5 753.5,-433.5 904.5,-433.5 904.5,-402.5 753.5,-402.5"/>
<polygon fill="black" stroke="black" points="755,-403 755,-432 757,-432 757,-403 755,-403"/>
<polygon fill="black" stroke="black" points="755,-432 755,-430 821,-430 821,-432 755,-432"/>
<polygon fill="black" stroke="black" points="821,-432 821,-403 819,-403 819,-432 821,-432"/>
<polygon fill="black" stroke="black" points="821,-403 821,-405 755,-405 755,-403 821,-403"/>
<text text-anchor="start" x="763.5" y="-414.7" font-family="Roboto" font-size="12.00">Site Info</text>
</g>
<!-- struct_Elems_a76bdc8d1c -->
<g id="node22" class="node"><title>struct_Elems_a76bdc8d1c</title>
<image xlink:href="Site_Site_Info_Site_Name.svg" width="200px" height="40px" preserveAspectRatio="xMinYMin meet" x="729.5" y="-379.5"/>
</g>
<!-- struct_Elems_44032b351f -->
<g id="node23" class="node"><title>struct_Elems_44032b351f</title>
<image xlink:href="Site_Site_Info_Latitude.svg" width="100px" height="40px" preserveAspectRatio="xMinYMin meet" x="744.5" y="-317.5"/>
<image xlink:href="Site_Site_Info_Northing.svg" width="66px" height="40px" preserveAspectRatio="xMinYMin meet" x="849" y="-317.5"/>
<image xlink:href="Site_Site_Info_Longitude.svg" width="100px" height="40px" preserveAspectRatio="xMinYMin meet" x="744.5" y="-273"/>
<image xlink:href="Site_Site_Info_Easting.svg" width="66px" height="40px" preserveAspectRatio="xMinYMin meet" x="849" y="-273"/>
</g>
<!-- struct_Elems_4e238c95ad -->
<g id="node24" class="node"><title>struct_Elems_4e238c95ad</title>
<image xlink:href="Site_Site_Info_Take_From_GPS.svg" width="200px" height="40px" preserveAspectRatio="xMinYMin meet" x="729.5" y="-211.5"/>
</g>
<!-- struct_Elems_8f290e07d1 -->
<g id="node25" class="node"><title>struct_Elems_8f290e07d1</title>
<image xlink:href="Site_Site_Info_Comments.svg" width="200px" height="40px" preserveAspectRatio="xMinYMin meet" x="729.5" y="-149.5"/>
</g>
<!-- struct_Elems_186dab5c1c -->
<g id="node26" class="node"><title>struct_Elems_186dab5c1c</title>
<image xlink:href="Site_Site_Info_Add_New_Record.svg" width="200px" height="40px" preserveAspectRatio="xMinYMin meet" x="729.5" y="-87.5"/>
</g>
<!-- _24b7c6bf20 -->
<g id="node28" class="node"><title>_24b7c6bf20</title>
</g>
<!-- struct_Label_ee840ff0cb -->
<g id="node30" class="node"><title>struct_Label_ee840ff0cb</title>
<polygon fill="none" stroke="black" points="1105.5,-796.5 1105.5,-827.5 1256.5,-827.5 1256.5,-796.5 1105.5,-796.5"/>
<polygon fill="black" stroke="black" points="1107,-797 1107,-826 1109,-826 1109,-797 1107,-797"/>
<polygon fill="black" stroke="black" points="1107,-826 1107,-824 1166,-824 1166,-826 1107,-826"/>
<polygon fill="black" stroke="black" points="1166,-826 1166,-797 1164,-797 1164,-826 1166,-826"/>
<polygon fill="black" stroke="black" points="1166,-797 1166,-799 1107,-799 1107,-797 1166,-797"/>
<text text-anchor="start" x="1115.5" y="-808.7" font-family="Roboto" font-size="12.00">Record</text>
<polygon fill="none" stroke="black" points="1166,-797 1166,-826 1190,-826 1190,-797 1166,-797"/>
<text text-anchor="start" x="1172" y="-808.7" font-family="Roboto" font-size="12.00">...</text>
</g>
<!-- struct_Elems_57d93fd015 -->
<g id="node31" class="node"><title>struct_Elems_57d93fd015</title>
<image xlink:href="Site_Record_Record_Site_Name.svg" width="200px" height="40px" preserveAspectRatio="xMinYMin meet" x="1081.5" y="-773.5"/>
</g>
<!-- struct_Elems_b356b9ce34 -->
<g id="node32" class="node"><title>struct_Elems_b356b9ce34</title>
<image xlink:href="Site_Record_Record_Site_Record_ID.svg" width="200px" height="40px" preserveAspectRatio="xMinYMin meet" x="1081.5" y="-711.5"/>
</g>
<!-- struct_Elems_ae9fe090c8 -->
<g id="node33" class="node"><title>struct_Elems_ae9fe090c8</title>
</g>
<!-- struct_Elems_f327002956 -->
<g id="node34" class="node"><title>struct_Elems_f327002956</title>
<image xlink:href="Site_Record_Record_Data_recorded_by.svg" width="200px" height="40px" preserveAspectRatio="xMinYMin meet" x="1081.5" y="-595.5"/>
</g>
<!-- struct_Elems_43b45c9b58 -->
<g id="node35" class="node"><title>struct_Elems_43b45c9b58</title>
<image xlink:href="Site_Record_Record_Check_in.svg" width="200px" height="40px" preserveAspectRatio="xMinYMin meet" x="1081.5" y="-533.5"/>
</g>
<!-- struct_Elems_1911d093ba -->
<g id="node36" class="node"><title>struct_Elems_1911d093ba</title>
<image xlink:href="Site_Record_Record_Time_checked_in.svg" width="200px" height="40px" preserveAspectRatio="xMinYMin meet" x="1081.5" y="-471.5"/>
</g>
<!-- struct_Elems_38beb67bcd -->
<g id="node37" class="node"><title>struct_Elems_38beb67bcd</title>
<image xlink:href="Site_Record_Record_Check_out.svg" width="200px" height="40px" preserveAspectRatio="xMinYMin meet" x="1081.5" y="-409.5"/>
</g>
<!-- struct_Elems_eb9aad944a -->
<g id="node38" class="node"><title>struct_Elems_eb9aad944a</title>
<image xlink:href="Site_Record_Record_Time_Checked_out.svg" width="200px" height="40px" preserveAspectRatio="xMinYMin meet" x="1081.5" y="-347.5"/>
</g>
<!-- struct_Elems_83b76b6a7d -->
<g id="node39" class="node"><title>struct_Elems_83b76b6a7d</title>
<image xlink:href="Site_Record_Record_Last_Rainfall.svg" width="200px" height="40px" preserveAspectRatio="xMinYMin meet" x="1081.5" y="-285.5"/>
</g>
<!-- struct_Elems_64f804cfa4 -->
<g id="node40" class="node"><title>struct_Elems_64f804cfa4</title>
<image xlink:href="Site_Record_Record_Rainfall_Description.svg" width="200px" height="40px" preserveAspectRatio="xMinYMin meet" x="1081.5" y="-223.5"/>
</g>
<!-- struct_Elems_0086c2c5d3 -->
<g id="node41" class="node"><title>struct_Elems_0086c2c5d3</title>
<image xlink:href="Site_Record_Record_Flow_magnitude.svg" width="200px" height="40px" preserveAspectRatio="xMinYMin meet" x="1081.5" y="-161.5"/>
</g>
<!-- struct_Elems_7595494bef -->
<g id="node42" class="node"><title>struct_Elems_7595494bef</title>
<image xlink:href="Site_Record_Record_Observation.svg" width="200px" height="40px" preserveAspectRatio="xMinYMin meet" x="1081.5" y="-99.5"/>
</g>
<!-- struct_Label_718514ad1f -->
<g id="node44" class="node"><title>struct_Label_718514ad1f</title>
<polygon fill="none" stroke="black" points="1457.5,-796.5 1457.5,-827.5 1608.5,-827.5 1608.5,-796.5 1457.5,-796.5"/>
<polygon fill="none" stroke="black" points="1459,-797 1459,-826 1484,-826 1484,-797 1459,-797"/>
<text text-anchor="start" x="1465.5" y="-808.7" font-family="Roboto" font-size="12.00">...</text>
<polygon fill="black" stroke="black" points="1484,-797 1484,-826 1486,-826 1486,-797 1484,-797"/>
<polygon fill="black" stroke="black" points="1484,-826 1484,-824 1567,-824 1567,-826 1484,-826"/>
<polygon fill="black" stroke="black" points="1567,-826 1567,-797 1565,-797 1565,-826 1567,-826"/>
<polygon fill="black" stroke="black" points="1567,-797 1567,-799 1484,-799 1484,-797 1567,-797"/>
<text text-anchor="start" x="1492" y="-808.7" font-family="Roboto" font-size="12.00">Parameters</text>
</g>
<!-- struct_Elems_bf6374faec -->
<g id="node45" class="node"><title>struct_Elems_bf6374faec</title>
<image xlink:href="Site_Record_Parameters_Available_Phosphate_mg_L.svg" width="100px" height="40px" preserveAspectRatio="xMinYMin meet" x="1431.5" y="-773.5"/>
<image xlink:href="Site_Record_Parameters_AP_Exception.svg" width="100px" height="40px" preserveAspectRatio="xMinYMin meet" x="1536" y="-773.5"/>
</g>
<!-- struct_Elems_1a3c4ded67 -->
<g id="node46" class="node"><title>struct_Elems_1a3c4ded67</title>
<image xlink:href="Site_Record_Parameters_Dissolved_Oxygen_mh_L.svg" width="100px" height="40px" preserveAspectRatio="xMinYMin meet" x="1431.5" y="-711.5"/>
<image xlink:href="Site_Record_Parameters_DO_Exception.svg" width="100px" height="40px" preserveAspectRatio="xMinYMin meet" x="1536" y="-711.5"/>
</g>
<!-- struct_Elems_566d150606 -->
<g id="node47" class="node"><title>struct_Elems_566d150606</title>
<image xlink:href="Site_Record_Parameters_Ecoli_Petrifilm_CFU_100mL.svg" width="100px" height="40px" preserveAspectRatio="xMinYMin meet" x="1431.5" y="-649.5"/>
<image xlink:href="Site_Record_Parameters_Ecoli_Exception.svg" width="100px" height="40px" preserveAspectRatio="xMinYMin meet" x="1536" y="-649.5"/>
</g>
<!-- struct_Elems_b1ea556d7a -->
<g id="node48" class="node"><title>struct_Elems_b1ea556d7a</title>
<image xlink:href="Site_Record_Parameters_Electrical_Conductivity.svg" width="100px" height="40px" preserveAspectRatio="xMinYMin meet" x="1431.5" y="-587.5"/>
<image xlink:href="Site_Record_Parameters_EC_Units.svg" width="100px" height="40px" preserveAspectRatio="xMinYMin meet" x="1536" y="-587.5"/>
<image xlink:href="Site_Record_Parameters_EC_Exception.svg" width="100px" height="40px" preserveAspectRatio="xMinYMin meet" x="1536" y="-543"/>
</g>
<!-- struct_Elems_6a6ab331bb -->
<g id="node49" class="node"><title>struct_Elems_6a6ab331bb</title>
<image xlink:href="Site_Record_Parameters_Turbidity_NTU.svg" width="100px" height="40px" preserveAspectRatio="xMinYMin meet" x="1431.5" y="-481.5"/>
<image xlink:href="Site_Record_Parameters_Turb_NTU_Exception.svg" width="100px" height="40px" preserveAspectRatio="xMinYMin meet" x="1536" y="-481.5"/>
</g>
<!-- struct_Elems_5e0a1e47c3 -->
<g id="node50" class="node"><title>struct_Elems_5e0a1e47c3</title>
<image xlink:href="Site_Record_Parameters_Turbidity_FTU_FAU.svg" width="100px" height="40px" preserveAspectRatio="xMinYMin meet" x="1431.5" y="-419.5"/>
<image xlink:href="Site_Record_Parameters_Turb_FTU_FAU_Exception.svg" width="100px" height="40px" preserveAspectRatio="xMinYMin meet" x="1536" y="-419.5"/>
</g>
<!-- struct_Elems_47b72920c0 -->
<g id="node51" class="node"><title>struct_Elems_47b72920c0</title>
<image xlink:href="Site_Record_Parameters_Temperature_C.svg" width="100px" height="40px" preserveAspectRatio="xMinYMin meet" x="1431.5" y="-357.5"/>
<image xlink:href="Site_Record_Parameters_Temp_Exception.svg" width="100px" height="40px" preserveAspectRatio="xMinYMin meet" x="1536" y="-357.5"/>
</g>
<!-- struct_Elems_4e43178b08 -->
<g id="node52" class="node"><title>struct_Elems_4e43178b08</title>
<image xlink:href="Site_Record_Parameters_pH.svg" width="100px" height="40px" preserveAspectRatio="xMinYMin meet" x="1431.5" y="-295.5"/>
<image xlink:href="Site_Record_Parameters_pH_Exception.svg" width="100px" height="40px" preserveAspectRatio="xMinYMin meet" x="1536" y="-295.5"/>
</g>
<!-- struct_Elems_83f72f341b -->
<g id="node53" class="node"><title>struct_Elems_83f72f341b</title>
<image xlink:href="Site_Record_Parameters_Nitrate_mg_L.svg" width="100px" height="40px" preserveAspectRatio="xMinYMin meet" x="1431.5" y="-233.5"/>
<image xlink:href="Site_Record_Parameters_NO3_Exception.svg" width="100px" height="40px" preserveAspectRatio="xMinYMin meet" x="1536" y="-233.5"/>
</g>
<!-- struct_Elems_f7ab1cd6dd -->
<g id="node54" class="node"><title>struct_Elems_f7ab1cd6dd</title>
<image xlink:href="Site_Record_Parameters_Other_Test_Name.svg" width="100px" height="40px" preserveAspectRatio="xMinYMin meet" x="1431.5" y="-171.5"/>
<image xlink:href="Site_Record_Parameters_Other_Test_Exception.svg" width="100px" height="40px" preserveAspectRatio="xMinYMin meet" x="1536" y="-171.5"/>
<image xlink:href="Site_Record_Parameters_Other_Test_Values.svg" width="100px" height="40px" preserveAspectRatio="xMinYMin meet" x="1431.5" y="-127"/>
</g>
<!-- struct_Elems_052360dcdd -->
<g id="node55" class="node"><title>struct_Elems_052360dcdd</title>
<image xlink:href="Site_Record_Parameters_Comments.svg" width="200px" height="40px" preserveAspectRatio="xMinYMin meet" x="1433.5" y="-65.5"/>
</g>
<!-- _9d6322c1f4&#45;&gt;_32d7e82082 -->
<!-- struct_Elems_ce6d39a81f&#45;&gt;struct_Label_0b4b1a2af6 -->
<g id="edge22" class="edge"><title>struct_Elems_ce6d39a81f:_ce6d39a81f&#45;&gt;struct_Label_0b4b1a2af6</title>
<path fill="none" stroke="black" d="M230.086,-634.29C239.732,-640.176 246,-644 246,-644 246,-644 358,-768 358,-768 358,-768 372.511,-771.292 391.399,-775.578"/>
<polygon fill="black" stroke="black" points="390.772,-779.024 401.298,-777.824 392.321,-772.198 390.772,-779.024"/>
</g>
<!-- _32d7e82082&#45;&gt;_fa7955814e -->
<!-- struct_Label_0b4b1a2af6&#45;&gt;struct_Label_b5348d5536 -->
<g id="edge12" class="edge"><title>struct_Label_0b4b1a2af6&#45;&gt;struct_Label_b5348d5536</title>
<path fill="none" stroke="black" d="M552.513,-795C608.445,-795 684.738,-795 743.015,-795"/>
<polygon fill="black" stroke="black" points="743.309,-798.5 753.309,-795 743.309,-791.5 743.309,-798.5"/>
</g>
<!-- struct_Elems_17be39b322&#45;&gt;struct_Label_4389182c79 -->
<g id="edge24" class="edge"><title>struct_Elems_17be39b322:_17be39b322&#45;&gt;struct_Label_4389182c79</title>
<path fill="none" stroke="black" d="M558.811,-713.961C575.441,-709.425 588,-706 588,-706 588,-706 710,-499 710,-499 710,-499 758.619,-465.906 793.704,-442.025"/>
<polygon fill="black" stroke="black" points="795.997,-444.698 802.294,-436.178 792.058,-438.912 795.997,-444.698"/>
</g>
<!-- _fa7955814e&#45;&gt;_24b7c6bf20 -->
<!-- struct_Elems_186dab5c1c&#45;&gt;struct_Label_ee840ff0cb -->
<g id="edge26" class="edge"><title>struct_Elems_186dab5c1c:_186dab5c1c&#45;&gt;struct_Label_ee840ff0cb</title>
<path fill="none" stroke="black" d="M916.254,-90.0011C935.333,-95.0887 950,-99 950,-99 950,-99 1062,-785 1062,-785 1062,-785 1076.51,-788.292 1095.4,-792.578"/>
<polygon fill="black" stroke="black" points="1094.77,-796.024 1105.3,-794.824 1096.32,-789.198 1094.77,-796.024"/>
</g>
<!-- struct_Label_ee840ff0cb&#45;&gt;struct_Label_718514ad1f -->
<g id="edge14" class="edge"><title>struct_Label_ee840ff0cb&#45;&gt;struct_Label_718514ad1f</title>
<path fill="none" stroke="black" d="M1256.51,-812C1312.44,-812 1388.74,-812 1447.02,-812"/>
<polygon fill="black" stroke="black" points="1447.31,-815.5 1457.31,-812 1447.31,-808.5 1447.31,-815.5"/>
</g>
</g>
</svg>
