<?xml version="1.0" encoding="UTF-8" standalone="no"?>
<!DOCTYPE svg PUBLIC "-//W3C//DTD SVG 1.1//EN"
 "http://www.w3.org/Graphics/SVG/1.1/DTD/svg11.dtd">
<!-- Generated by graphviz version 2.38.0 (20140413.2041)
 -->
<!-- Title: %3 Pages: 1 -->
<svg width="1117pt" height="1360pt"
 viewBox="0.00 0.00 1117.00 1360.00" xmlns="http://www.w3.org/2000/svg" xmlns:xlink="http://www.w3.org/1999/xlink">
<g id="graph0" class="graph" transform="scale(1 1) rotate(0) translate(4 1356)">
<title>%3</title>
<polygon fill="white" stroke="none" points="-4,4 -4,-1356 1113,-1356 1113,4 -4,4"/>
<g id="clust1" class="cluster"><title>cluster_9d6322c1f4</title>
<polygon fill="lightblue" stroke="black" points="8,-233 8,-498 194,-498 194,-233 8,-233"/>
<text text-anchor="middle" x="101" y="-482.8" font-family="Roboto" font-size="14.00">Login</text>
</g>
<g id="clust2" class="cluster"><title>cluster_290826c5a0</title>
<polygon fill="white" stroke="black" points="16,-253 16,-467 186,-467 186,-253 16,-253"/>
</g>
<g id="clust3" class="cluster"><title>cluster_32d7e82082</title>
<polygon fill="lightblue" stroke="black" points="8,-732 8,-1055 496.5,-1055 496.5,-732 8,-732"/>
<text text-anchor="middle" x="252.25" y="-1039.8" font-family="Roboto" font-size="14.00">Control</text>
</g>
<g id="clust4" class="cluster"><title>cluster_0b4b1a2af6</title>
<polygon fill="white" stroke="black" points="16,-752 16,-1024 186,-1024 186,-752 16,-752"/>
</g>
<g id="clust5" class="cluster"><title>cluster_b5348d5536</title>
<polygon fill="white" stroke="black" points="314.5,-752 314.5,-1024 488.5,-1024 488.5,-752 314.5,-752"/>
</g>
<g id="clust6" class="cluster"><title>cluster_fa7955814e</title>
<polygon fill="lightblue" stroke="black" points="306,-297 306,-724 497,-724 497,-297 306,-297"/>
<text text-anchor="middle" x="401.5" y="-708.8" font-family="Roboto" font-size="14.00">Site</text>
</g>
<g id="clust7" class="cluster"><title>cluster_4389182c79</title>
<polygon fill="white" stroke="black" points="314,-317 314,-693 489,-693 489,-317 314,-317"/>
</g>
<g id="clust8" class="cluster"><title>cluster_24b7c6bf20</title>
<polygon fill="lightblue" stroke="black" points="609,-8 609,-1344 1101,-1344 1101,-8 609,-8"/>
<text text-anchor="middle" x="855" y="-1328.8" font-family="Roboto" font-size="14.00">Site Record</text>
</g>
<g id="clust9" class="cluster"><title>cluster_ee840ff0cb</title>
<polygon fill="white" stroke="black" points="617,-829 617,-1313 791,-1313 791,-829 617,-829"/>
</g>
<g id="clust10" class="cluster"><title>cluster_718514ad1f</title>
<polygon fill="white" stroke="black" points="919,-16 919,-1313 1093,-1313 1093,-16 919,-16"/>
</g>
<!-- cluster_anchor_9d6322c1f4 -->
<g id="node1" class="node"><title>cluster_anchor_9d6322c1f4</title>
</g>
<!-- struct_Label_290826c5a0 -->
<g id="node2" class="node"><title>struct_Label_290826c5a0</title>
<polyline fill="none" stroke="black" stroke-width="3" points="28.5,-427.5 114.5,-427.5 "/>
<text text-anchor="start" x="35" y="-437.4" font-family="Roboto" font-size="12.00">Group Login</text>
<polygon fill="none" stroke="black" points="26,-425.5 26,-456.5 176,-456.5 176,-425.5 26,-425.5"/>
</g>
<!-- struct_Elems_ce6d39a81f -->
<g id="node3" class="node"><title>struct_Elems_ce6d39a81f</title>
<image xlink:href="Login_Group_Login_Group_Name.svg" width="150px" height="30px" preserveAspectRatio="xMinYMin meet" x="26" y="-402"/>
</g>
<!-- struct_Elems_d88e27cfea -->
<g id="node4" class="node"><title>struct_Elems_d88e27cfea</title>
<image xlink:href="Login_Group_Login_Log_in.svg" width="150px" height="30px" preserveAspectRatio="xMinYMin meet" x="26" y="-348"/>
</g>
<!-- struct_Elems_d66897aad5 -->
<g id="node5" class="node"><title>struct_Elems_d66897aad5</title>
<image xlink:href="Login_Group_Login_Sign_up.svg" width="150px" height="30px" preserveAspectRatio="xMinYMin meet" x="26" y="-294"/>
</g>
<!-- cluster_anchor_32d7e82082 -->
<g id="node6" class="node"><title>cluster_anchor_32d7e82082</title>
</g>
<!-- struct_Label_0b4b1a2af6 -->
<g id="node7" class="node"><title>struct_Label_0b4b1a2af6</title>
<polyline fill="none" stroke="black" stroke-width="3" points="28.5,-984.5 68.5,-984.5 "/>
<text text-anchor="start" x="35" y="-994.4" font-family="Roboto" font-size="12.00">Main</text>
<polyline fill="none" stroke="black" points="70,-983 94,-983 "/>
<text text-anchor="start" x="76" y="-994.4" font-family="Roboto" font-size="12.00">...</text>
<polygon fill="none" stroke="black" points="26,-982.5 26,-1013.5 176,-1013.5 176,-982.5 26,-982.5"/>
</g>
<!-- struct_Elems_af4605aedd -->
<g id="node8" class="node"><title>struct_Elems_af4605aedd</title>
<image xlink:href="Control_Main_Add_New_Site.svg" width="150px" height="30px" preserveAspectRatio="xMinYMin meet" x="26" y="-959"/>
</g>
<!-- struct_Elems_813090fd70 -->
<g id="node9" class="node"><title>struct_Elems_813090fd70</title>
<image xlink:href="Control_Main_Next_Site_Record_ID.svg" width="150px" height="30px" preserveAspectRatio="xMinYMin meet" x="26" y="-905"/>
</g>
<!-- struct_Elems_7898d02343 -->
<g id="node10" class="node"><title>struct_Elems_7898d02343</title>
<image xlink:href="Control_Main_List_of_Sites.svg" width="150px" height="90px" preserveAspectRatio="xMinYMin meet" x="26" y="-852"/>
</g>
<!-- struct_Label_b5348d5536 -->
<g id="node11" class="node"><title>struct_Label_b5348d5536</title>
<polyline fill="none" stroke="black" points="327.5,-983 351.5,-983 "/>
<text text-anchor="start" x="333.5" y="-994.4" font-family="Roboto" font-size="12.00">...</text>
<polyline fill="none" stroke="black" stroke-width="3" points="353,-984.5 407,-984.5 "/>
<text text-anchor="start" x="359.5" y="-994.4" font-family="Roboto" font-size="12.00">Search</text>
<polygon fill="none" stroke="black" points="326.5,-982.5 326.5,-1013.5 476.5,-1013.5 476.5,-982.5 326.5,-982.5"/>
</g>
<!-- struct_Elems_b430ed08aa -->
<g id="node12" class="node"><title>struct_Elems_b430ed08aa</title>
<image xlink:href="Control_Search_Search_Term.svg" width="75px" height="30px" preserveAspectRatio="xMinYMin meet" x="324.5" y="-959"/>
<image xlink:href="Control_Search_Search_Button.svg" width="75px" height="30px" preserveAspectRatio="xMinYMin meet" x="403.5" y="-959"/>
</g>
<!-- struct_Elems_18e4ee8dff -->
<g id="node13" class="node"><title>struct_Elems_18e4ee8dff</title>
<image xlink:href="Control_Search_Entity_Types.svg" width="150px" height="30px" preserveAspectRatio="xMinYMin meet" x="326.5" y="-905"/>
</g>
<!-- struct_Elems_89e10496a5 -->
<g id="node14" class="node"><title>struct_Elems_89e10496a5</title>
<image xlink:href="Control_Search_Entity_List.svg" width="150px" height="90px" preserveAspectRatio="xMinYMin meet" x="326.5" y="-852"/>
</g>
<!-- cluster_anchor_fa7955814e -->
<g id="node15" class="node"><title>cluster_anchor_fa7955814e</title>
</g>
<!-- struct_Label_4389182c79 -->
<g id="node16" class="node"><title>struct_Label_4389182c79</title>
<polyline fill="none" stroke="black" stroke-width="3" points="329,-653.5 391,-653.5 "/>
<text text-anchor="start" x="335.5" y="-663.4" font-family="Roboto" font-size="12.00">Site Info</text>
<polygon fill="none" stroke="black" points="326.5,-651.5 326.5,-682.5 476.5,-682.5 476.5,-651.5 326.5,-651.5"/>
</g>
<!-- struct_Elems_3ffe04df42 -->
<g id="node17" class="node"><title>struct_Elems_3ffe04df42</title>
<image xlink:href="Site_Site_Info_Site_Site_Name.svg" width="150px" height="30px" preserveAspectRatio="xMinYMin meet" x="326.5" y="-628"/>
</g>
<!-- struct_Elems_995a7075f5 -->
<g id="node18" class="node"><title>struct_Elems_995a7075f5</title>
<image xlink:href="Site_Site_Info_Latitude.svg" width="75px" height="30px" preserveAspectRatio="xMinYMin meet" x="324.5" y="-574"/>
<image xlink:href="Site_Site_Info_Longitude.svg" width="75px" height="30px" preserveAspectRatio="xMinYMin meet" x="403.5" y="-574"/>
</g>
<!-- struct_Elems_49d6632296 -->
<g id="node19" class="node"><title>struct_Elems_49d6632296</title>
<image xlink:href="Site_Site_Info_Northing.svg" width="49px" height="30px" preserveAspectRatio="xMinYMin meet" x="324.5" y="-520"/>
<image xlink:href="Site_Site_Info_Easting.svg" width="49px" height="30px" preserveAspectRatio="xMinYMin meet" x="377.5" y="-520"/>
<image xlink:href="Site_Site_Info_Accuracy.svg" width="49px" height="30px" preserveAspectRatio="xMinYMin meet" x="430.5" y="-520"/>
</g>
<!-- struct_Elems_8f290e07d1 -->
<g id="node20" class="node"><title>struct_Elems_8f290e07d1</title>
<image xlink:href="Site_Site_Info_Comments.svg" width="150px" height="30px" preserveAspectRatio="xMinYMin meet" x="326.5" y="-466"/>
</g>
<!-- struct_Elems_186dab5c1c -->
<g id="node21" class="node"><title>struct_Elems_186dab5c1c</title>
<image xlink:href="Site_Site_Info_Add_New_Record.svg" width="150px" height="30px" preserveAspectRatio="xMinYMin meet" x="326.5" y="-412"/>
</g>
<!-- struct_Elems_9e2c03b468 -->
<g id="node22" class="node"><title>struct_Elems_9e2c03b468</title>
<image xlink:href="Site_Site_Info_Existing_Records.svg" width="150px" height="30px" preserveAspectRatio="xMinYMin meet" x="326.5" y="-358"/>
</g>
<!-- cluster_anchor_24b7c6bf20 -->
<g id="node23" class="node"><title>cluster_anchor_24b7c6bf20</title>
</g>
<!-- struct_Label_ee840ff0cb -->
<g id="node24" class="node"><title>struct_Label_ee840ff0cb</title>
<polyline fill="none" stroke="black" stroke-width="3" points="631.5,-1273.5 686.5,-1273.5 "/>
<text text-anchor="start" x="638" y="-1283.4" font-family="Roboto" font-size="12.00">Record</text>
<polyline fill="none" stroke="black" points="688,-1272 712,-1272 "/>
<text text-anchor="start" x="694" y="-1283.4" font-family="Roboto" font-size="12.00">...</text>
<polygon fill="none" stroke="black" points="629,-1271.5 629,-1302.5 779,-1302.5 779,-1271.5 629,-1271.5"/>
</g>
<!-- struct_Elems_a2706f5db3 -->
<g id="node25" class="node"><title>struct_Elems_a2706f5db3</title>
<image xlink:href="Site_Record_Record_Site_Record_Site_Name.svg" width="75px" height="30px" preserveAspectRatio="xMinYMin meet" x="627" y="-1248"/>
<image xlink:href="Site_Record_Record_Site_Record_ID.svg" width="75px" height="30px" preserveAspectRatio="xMinYMin meet" x="706" y="-1248"/>
</g>
<!-- struct_Elems_a5854f6825 -->
<g id="node26" class="node"><title>struct_Elems_a5854f6825</title>
<image xlink:href="Site_Record_Record_Site_Record_author.svg" width="75px" height="30px" preserveAspectRatio="xMinYMin meet" x="627" y="-1194"/>
<image xlink:href="Site_Record_Record_Data_recorded_by.svg" width="75px" height="30px" preserveAspectRatio="xMinYMin meet" x="706" y="-1194"/>
</g>
<!-- struct_Elems_43b45c9b58 -->
<g id="node27" class="node"><title>struct_Elems_43b45c9b58</title>
<image xlink:href="Site_Record_Record_Check_in.svg" width="150px" height="30px" preserveAspectRatio="xMinYMin meet" x="629" y="-1140"/>
</g>
<!-- struct_Elems_5839019bb8 -->
<g id="node28" class="node"><title>struct_Elems_5839019bb8</title>
<image xlink:href="Site_Record_Record_Time_Checked_in.svg" width="150px" height="30px" preserveAspectRatio="xMinYMin meet" x="629" y="-1086"/>
</g>
<!-- struct_Elems_83b76b6a7d -->
<g id="node29" class="node"><title>struct_Elems_83b76b6a7d</title>
<image xlink:href="Site_Record_Record_Last_Rainfall.svg" width="150px" height="30px" preserveAspectRatio="xMinYMin meet" x="629" y="-1032"/>
</g>
<!-- struct_Elems_64f804cfa4 -->
<g id="node30" class="node"><title>struct_Elems_64f804cfa4</title>
<image xlink:href="Site_Record_Record_Rainfall_Description.svg" width="150px" height="30px" preserveAspectRatio="xMinYMin meet" x="629" y="-978"/>
</g>
<!-- struct_Elems_0086c2c5d3 -->
<g id="node31" class="node"><title>struct_Elems_0086c2c5d3</title>
<image xlink:href="Site_Record_Record_Flow_magnitude.svg" width="150px" height="30px" preserveAspectRatio="xMinYMin meet" x="629" y="-924"/>
</g>
<!-- struct_Elems_7595494bef -->
<g id="node32" class="node"><title>struct_Elems_7595494bef</title>
<image xlink:href="Site_Record_Record_Observation.svg" width="150px" height="30px" preserveAspectRatio="xMinYMin meet" x="629" y="-870"/>
</g>
<!-- struct_Label_718514ad1f -->
<g id="node33" class="node"><title>struct_Label_718514ad1f</title>
<polyline fill="none" stroke="black" points="932,-1272 956,-1272 "/>
<text text-anchor="start" x="938" y="-1283.4" font-family="Roboto" font-size="12.00">...</text>
<polyline fill="none" stroke="black" stroke-width="3" points="957.5,-1273.5 1037.5,-1273.5 "/>
<text text-anchor="start" x="964" y="-1283.4" font-family="Roboto" font-size="12.00">Parameters</text>
<polygon fill="none" stroke="black" points="931,-1271.5 931,-1302.5 1081,-1302.5 1081,-1271.5 931,-1271.5"/>
</g>
<!-- struct_Elems_71c1fc9b7b -->
<g id="node34" class="node"><title>struct_Elems_71c1fc9b7b</title>
<image xlink:href="Site_Record_Parameters_Available_Phosphate_mg_L.svg" width="75px" height="40px" preserveAspectRatio="xMinYMin meet" x="929" y="-1230.5"/>
<image xlink:href="Site_Record_Parameters_AP_Exception.svg" width="75px" height="75px" preserveAspectRatio="xMinYMin meet" x="1008" y="-1248"/>
</g>
<!-- struct_Elems_f3e45e03f0 -->
<g id="node35" class="node"><title>struct_Elems_f3e45e03f0</title>
<image xlink:href="Site_Record_Parameters_Dissolved_Oxygen_mh_L.svg" width="75px" height="40px" preserveAspectRatio="xMinYMin meet" x="929" y="-1133.5"/>
<image xlink:href="Site_Record_Parameters_DO_Exception.svg" width="75px" height="75px" preserveAspectRatio="xMinYMin meet" x="1008" y="-1151"/>
</g>
<!-- struct_Elems_551022a135 -->
<g id="node36" class="node"><title>struct_Elems_551022a135</title>
<image xlink:href="Site_Record_Parameters_Ecoli_Petrifilm_CFU_100mL.svg" width="75px" height="40px" preserveAspectRatio="xMinYMin meet" x="929" y="-1036.5"/>
<image xlink:href="Site_Record_Parameters_Ecoli_Exception.svg" width="75px" height="75px" preserveAspectRatio="xMinYMin meet" x="1008" y="-1054"/>
</g>
<!-- struct_Elems_19ccfbacdf -->
<g id="node37" class="node"><title>struct_Elems_19ccfbacdf</title>
<image xlink:href="Site_Record_Parameters_Electrical_Conductivity.svg" width="75px" height="40px" preserveAspectRatio="xMinYMin meet" x="929" y="-940.5"/>
<image xlink:href="Site_Record_Parameters_EC_Units.svg" width="75px" height="75px" preserveAspectRatio="xMinYMin meet" x="1008" y="-958"/>
<image xlink:href="Site_Record_Parameters_EC_Exception.svg" width="75px" height="75px" preserveAspectRatio="xMinYMin meet" x="1008" y="-879"/>
</g>
<!-- struct_Elems_6dba9774f9 -->
<g id="node38" class="node"><title>struct_Elems_6dba9774f9</title>
<image xlink:href="Site_Record_Parameters_Turbidity_NTU.svg" width="75px" height="40px" preserveAspectRatio="xMinYMin meet" x="929" y="-764.5"/>
<image xlink:href="Site_Record_Parameters_Turb_NTU_Exception.svg" width="75px" height="75px" preserveAspectRatio="xMinYMin meet" x="1008" y="-782"/>
</g>
<!-- struct_Elems_18d41c1c5b -->
<g id="node39" class="node"><title>struct_Elems_18d41c1c5b</title>
<image xlink:href="Site_Record_Parameters_Turbidity_FTU_FAU.svg" width="75px" height="40px" preserveAspectRatio="xMinYMin meet" x="929" y="-667.5"/>
<image xlink:href="Site_Record_Parameters_Turb_FTU_FAU_Exception.svg" width="75px" height="75px" preserveAspectRatio="xMinYMin meet" x="1008" y="-685"/>
</g>
<!-- struct_Elems_4e99ad8ff4 -->
<g id="node40" class="node"><title>struct_Elems_4e99ad8ff4</title>
<image xlink:href="Site_Record_Parameters_Temperature_C.svg" width="75px" height="40px" preserveAspectRatio="xMinYMin meet" x="929" y="-570.5"/>
<image xlink:href="Site_Record_Parameters_Temp_Exception.svg" width="75px" height="75px" preserveAspectRatio="xMinYMin meet" x="1008" y="-588"/>
</g>
<!-- struct_Elems_aef5b60ebd -->
<g id="node41" class="node"><title>struct_Elems_aef5b60ebd</title>
<image xlink:href="Site_Record_Parameters_pH.svg" width="75px" height="40px" preserveAspectRatio="xMinYMin meet" x="929" y="-473.5"/>
<image xlink:href="Site_Record_Parameters_pH_Exception.svg" width="75px" height="75px" preserveAspectRatio="xMinYMin meet" x="1008" y="-491"/>
</g>
<!-- struct_Elems_08486feb53 -->
<g id="node42" class="node"><title>struct_Elems_08486feb53</title>
<image xlink:href="Site_Record_Parameters_Nitrate_mg_L.svg" width="75px" height="40px" preserveAspectRatio="xMinYMin meet" x="929" y="-376.5"/>
<image xlink:href="Site_Record_Parameters_NO3_Exception.svg" width="75px" height="75px" preserveAspectRatio="xMinYMin meet" x="1008" y="-394"/>
</g>
<!-- struct_Elems_ec22ec6a84 -->
<g id="node43" class="node"><title>struct_Elems_ec22ec6a84</title>
<image xlink:href="Site_Record_Parameters_Other_Test_Name.svg" width="75px" height="40px" preserveAspectRatio="xMinYMin meet" x="929" y="-279.5"/>
<image xlink:href="Site_Record_Parameters_Other_Test_Exception.svg" width="75px" height="75px" preserveAspectRatio="xMinYMin meet" x="1008" y="-297"/>
<image xlink:href="Site_Record_Parameters_Other_Test_Values.svg" width="75px" height="30px" preserveAspectRatio="xMinYMin meet" x="929" y="-218"/>
</g>
<!-- struct_Elems_052360dcdd -->
<g id="node44" class="node"><title>struct_Elems_052360dcdd</title>
<image xlink:href="Site_Record_Parameters_Comments.svg" width="150px" height="30px" preserveAspectRatio="xMinYMin meet" x="931" y="-165"/>
</g>
<!-- struct_Elems_7e0662fc41 -->
<g id="node45" class="node"><title>struct_Elems_7e0662fc41</title>
<image xlink:href="Site_Record_Parameters_Check_out.svg" width="150px" height="30px" preserveAspectRatio="xMinYMin meet" x="931" y="-111"/>
</g>
<!-- struct_Elems_ded5e233cf -->
<g id="node46" class="node"><title>struct_Elems_ded5e233cf</title>
<image xlink:href="Site_Record_Parameters_Time_Checked_out.svg" width="150px" height="30px" preserveAspectRatio="xMinYMin meet" x="931" y="-57"/>
</g>
<!-- cluster_anchor_32d7e82082&#45;&gt;cluster_anchor_fa7955814e -->
<!-- struct_Label_0b4b1a2af6&#45;&gt;struct_Label_b5348d5536 -->
<g id="edge1" class="edge"><title>struct_Label_0b4b1a2af6&#45;&gt;struct_Label_b5348d5536</title>
<path fill="none" stroke="black" d="M176.054,-998C176.054,-998 316.362,-998 316.362,-998"/>
<polygon fill="black" stroke="black" points="316.362,-1001.5 326.362,-998 316.362,-994.5 316.362,-1001.5"/>
</g>
<!-- struct_Elems_af4605aedd&#45;&gt;struct_Label_4389182c79 -->
<g id="edge5" class="edge"><title>struct_Elems_af4605aedd:_af4605aedd&#45;&gt;struct_Label_4389182c79</title>
<path fill="none" stroke="black" d="M178.119,-944C214.476,-944 250,-944 250,-944 250,-944 250,-667 250,-667 250,-667 316.194,-667 316.194,-667"/>
<polygon fill="black" stroke="black" points="316.194,-670.5 326.194,-667 316.194,-663.5 316.194,-670.5"/>
</g>
<!-- cluster_anchor_fa7955814e&#45;&gt;cluster_anchor_24b7c6bf20 -->
<!-- struct_Elems_186dab5c1c&#45;&gt;struct_Label_ee840ff0cb -->
<g id="edge6" class="edge"><title>struct_Elems_186dab5c1c:_186dab5c1c&#45;&gt;struct_Label_ee840ff0cb</title>
<path fill="none" stroke="black" d="M478.581,-405.5C516.007,-405.5 553,-405.5 553,-405.5 553,-405.5 553,-1287 553,-1287 553,-1287 618.942,-1287 618.942,-1287"/>
<polygon fill="black" stroke="black" points="618.942,-1290.5 628.942,-1287 618.942,-1283.5 618.942,-1290.5"/>
</g>
<!-- struct_Label_ee840ff0cb&#45;&gt;struct_Label_718514ad1f -->
<g id="edge2" class="edge"><title>struct_Label_ee840ff0cb&#45;&gt;struct_Label_718514ad1f</title>
<path fill="none" stroke="black" d="M779.04,-1287C779.04,-1287 920.823,-1287 920.823,-1287"/>
<polygon fill="black" stroke="black" points="920.823,-1290.5 930.823,-1287 920.823,-1283.5 920.823,-1290.5"/>
</g>
</g>
</svg>
